PathFileType   4   (X/Y/Z)
DataRate	CameraRate	NumFrames	NumMarkers	Units	OrigDataRate	OrigDataStartFrame	OrigNumFrames
120.0	120.0	12	37	mm	120.0	28	96
Frame#	Time	midhip	hip_r	hip_l	knee_r	knee_l	ankle_r	ankle_l	midasis	asis_r	asis_l	psis_r	psis_l	epicondLat_r	epicondLat_l	epicondMed_r	epicondMed_l	malleolusLat_r	malleolusLat_l	malleolusMedv_r	malleolusMedv_l	neck	subclavicle_r	subclavicle_l	sternalnotch	xyphoidprocess	thighwand_r	thighwand_l	upperleg1_r	upperleg1_l	upperleg2_r	upperleg2_l	shankwand_r	shankwand_l	lowerleg1_r	lowerleg1_l	toe_r	toe_l
 	 	X1	Y1	Z1	X2	Y2	Z2	X3	Y3	Z3	X4	Y4	Z4	X5	Y5	Z5	X6	Y6	Z6	X7	Y7	Z7	X8	Y8	Z8	X9	Y9	Z9	X10	Y10	Z10	X11	Y11	Z11	X12	Y12	Z12	X13	Y13	Z13	X14	Y14	Z14	X15	Y15	Z15	X16	Y16	Z16	X17	Y17	Z17	X18	Y18	Z18	X19	Y19	Z19	X20	Y20	Z20	X21	Y21	Z21	X22	Y22	Z22	X23	Y23	Z23	X24	Y24	Z24	X25	Y25	Z25	X26	Y26	Z26	X27	Y27	Z27	X28	Y28	Z28	X29	Y29	Z29	X30	Y30	Z30	X31	Y31	Z31	X32	Y32	Z32	X33	Y33	Z33	X34	Y34	Z34	X35	Y35	Z35	X36	Y36	Z36	X37	Y37	Z37

	28	0.31667	828.463	620.520	-266.107	832.700	632.625	-210.658	839.636	631.486	-327.893	746.219	344.824	-215.860	976.166	351.185	-340.197	674.713	61.308	-222.846	1010.713	69.443	-346.863	883.828	691.413	-267.033	878.670	692.260	-179.842	888.986	690.566	-354.223	745.758	719.946	-234.525	755.447	712.569	-318.528	741.845	345.311	-170.071	970.311	350.424	-387.833	738.105	344.610	-250.842	990.541	353.513	-298.427	666.415	62.602	-190.416	994.101	68.067	-374.762	667.589	67.713	-250.421	1018.037	68.499	-313.674	834.050	1028.415	-270.551	930.134	961.606	-231.984	922.250	956.443	-321.048	912.280	972.306	-268.451	953.617	836.710	-269.263	881.808	390.075	-227.116	989.959	450.767	-448.985	825.354	466.203	-179.406	969.757	500.863	-365.460	792.083	389.054	-178.733	1006.828	426.296	-350.659	706.833	150.863	-114.633	1089.441	192.879	-344.278	711.077	201.032	-177.097	1024.171	234.408	-351.524	754.094	39.302	-226.696	1090.581	64.650	-364.893
	29	0.32500	840.922	617.698	-267.406	844.758	629.949	-211.843	852.683	628.627	-329.013	752.358	344.416	-216.579	991.587	349.608	-339.994	675.488	62.131	-223.248	1043.727	69.710	-351.087	896.112	688.849	-267.894	890.215	689.832	-180.712	902.009	687.866	-355.076	757.393	717.021	-236.803	767.943	709.290	-320.666	747.573	345.206	-170.836	985.951	348.678	-387.653	743.014	347.742	-251.584	1002.518	349.380	-297.504	666.959	63.689	-190.889	1027.985	67.902	-379.462	668.433	68.642	-250.894	1051.437	68.611	-318.249	846.067	1025.473	-271.386	942.007	958.272	-232.774	934.438	953.093	-322.068	924.332	969.159	-269.412	965.320	833.304	-270.031	889.322	386.677	-226.803	1004.373	448.529	-447.392	838.659	464.864	-180.898	981.548	497.212	-363.515	799.109	387.954	-179.652	1019.149	422.822	-348.637	708.472	151.519	-115.099	1113.969	198.452	-343.927	713.949	201.253	-177.460	1046.230	235.581	-352.195	754.310	39.274	-226.827	1124.595	69.961	-367.340
	30	0.33333	853.432	614.726	-268.636	856.946	627.126	-212.996	865.788	625.622	-330.098	758.896	343.847	-217.323	1006.926	347.978	-339.897	676.327	62.995	-223.610	1075.173	70.753	-354.897	908.521	686.111	-268.753	901.940	687.230	-181.600	915.103	684.991	-355.906	769.216	713.975	-238.977	780.550	705.922	-322.719	753.758	344.927	-171.624	1001.594	346.951	-387.589	749.646	348.201	-252.928	1013.994	344.906	-296.827	667.618	64.833	-191.314	1060.444	68.691	-383.795	669.331	69.540	-251.332	1083.218	69.745	-322.486	858.059	1022.347	-272.448	953.892	954.829	-233.613	946.686	949.670	-323.257	936.417	965.915	-270.478	977.158	829.825	-270.961	897.109	383.212	-226.627	1018.945	446.341	-445.761	848.909	462.628	-182.128	993.295	493.392	-361.542	806.317	386.604	-180.736	1031.250	419.097	-346.599	710.423	152.142	-115.567	1137.231	203.845	-342.910	717.204	201.426	-178.108	1067.922	236.994	-352.328	754.541	39.251	-226.955	1156.828	75.713	-369.264
	31	0.34167	865.995	611.639	-269.789	869.266	624.189	-214.101	878.943	622.512	-331.135	765.880	343.105	-218.069	1022.255	346.358	-339.963	677.246	63.937	-223.917	1104.740	72.290	-358.205	921.052	683.239	-269.594	913.849	684.487	-182.483	928.255	681.991	-356.706	781.247	710.834	-241.020	793.256	702.507	-324.662	760.426	344.467	-172.413	1017.344	345.335	-387.700	757.054	347.347	-254.355	1025.611	340.424	-296.330	668.407	66.067	-191.674	1091.135	70.155	-387.643	670.231	70.459	-251.683	1112.978	71.478	-326.227	870.126	1019.107	-273.824	965.824	951.352	-234.497	959.024	946.333	-324.559	948.546	962.656	-271.674	989.138	826.380	-272.134	905.205	379.697	-226.513	1033.830	444.349	-444.181	857.707	460.093	-182.968	1005.285	489.571	-359.622	813.696	385.039	-181.710	1043.529	415.442	-344.606	712.701	152.742	-116.024	1159.190	208.811	-341.290	720.828	201.517	-178.806	1089.138	238.847	-351.846	754.796	39.246	-227.076	1187.018	81.534	-370.568
	32	0.35000	878.631	608.483	-270.870	881.729	621.174	-215.159	892.159	619.349	-332.125	773.361	342.187	-218.795	1037.618	344.789	-340.228	678.263	64.997	-224.149	1132.183	73.987	-360.963	933.707	680.283	-270.409	925.943	681.642	-183.340	941.471	678.925	-357.477	793.503	707.624	-242.914	806.049	699.081	-326.480	767.602	343.829	-173.186	1033.271	343.897	-388.022	765.330	346.448	-255.473	1037.342	336.329	-295.982	669.342	67.436	-191.951	1119.758	71.943	-390.925	671.162	71.514	-252.032	1140.307	73.448	-329.233	882.350	1015.745	-275.352	977.842	948.005	-235.541	971.417	943.152	-325.948	960.749	959.453	-273.026	1001.351	823.109	-273.484	913.659	376.151	-226.381	1049.149	442.677	-442.728	867.149	457.900	-183.390	1018.119	486.221	-357.916	821.847	383.249	-182.404	1056.278	412.004	-342.781	715.324	153.337	-116.449	1179.857	213.094	-339.230	724.793	201.554	-179.443	1108.882	240.744	-351.200	755.088	39.267	-227.187	1214.954	86.986	-371.199
	33	0.35833	891.409	605.309	-271.903	894.358	618.116	-216.179	905.461	616.184	-333.082	781.383	341.097	-219.483	1053.023	343.289	-340.701	679.407	66.219	-224.279	1157.333	75.501	-363.170	946.497	677.297	-271.199	938.230	678.735	-184.160	954.764	675.858	-358.239	805.995	704.365	-244.656	818.927	695.682	-328.165	775.314	343.028	-173.926	1049.404	342.669	-388.560	774.229	345.535	-256.475	1049.572	332.793	-296.118	670.449	68.981	-192.117	1146.072	73.668	-393.601	672.206	72.748	-252.376	1165.045	75.401	-331.422	894.652	1012.355	-277.018	989.925	944.904	-236.819	983.890	940.123	-327.506	973.060	956.356	-274.547	1013.845	820.091	-274.915	922.518	372.596	-226.173	1064.973	441.419	-441.458	877.035	455.802	-183.559	1031.747	483.465	-356.654	830.513	381.421	-182.939	1069.638	409.042	-341.438	718.315	153.960	-116.817	1199.297	216.450	-336.973	728.981	201.601	-180.051	1127.207	242.071	-350.657	755.434	39.326	-227.286	1240.480	91.607	-371.176
	34	0.36667	904.375	602.158	-272.914	907.180	615.049	-217.183	918.876	613.068	-334.028	789.988	339.844	-220.121	1068.453	341.846	-341.360	680.719	67.641	-224.278	1180.095	76.518	-364.875	959.442	674.329	-271.981	950.729	675.804	-184.945	968.154	672.854	-359.017	818.738	701.081	-246.249	831.905	692.347	-329.721	783.595	342.081	-174.622	1065.732	341.641	-389.283	783.530	344.281	-257.521	1062.611	329.831	-297.052	671.772	70.741	-192.144	1169.898	74.958	-395.694	673.406	74.206	-252.582	1187.222	77.016	-332.829	907.068	1009.045	-278.902	1002.134	942.029	-238.385	996.566	937.193	-329.300	985.503	953.384	-276.242	1026.621	817.273	-276.422	931.824	369.059	-225.855	1081.314	440.627	-440.389	886.888	453.414	-183.672	1045.933	481.221	-356.031	839.460	379.589	-183.443	1083.616	406.756	-340.817	721.711	154.648	-117.100	1217.613	218.672	-334.808	733.488	201.711	-180.580	1144.804	242.795	-350.299	755.856	39.427	-227.368	1263.502	94.978	-370.599
	35	0.37500	917.570	599.063	-273.941	920.233	612.005	-218.203	932.436	610.049	-334.996	799.209	338.442	-220.701	1083.883	340.432	-342.160	682.254	69.296	-224.122	1200.441	76.805	-366.163	972.569	671.423	-272.781	963.473	672.881	-185.714	981.666	669.964	-359.848	831.744	697.803	-247.711	845.008	689.114	-331.162	792.478	341.005	-175.268	1082.214	340.769	-390.130	793.308	342.806	-258.442	1076.344	327.540	-298.842	673.366	72.751	-192.007	1191.137	75.525	-397.276	674.843	75.938	-252.619	1206.799	77.838	-333.684	919.677	1005.823	-280.933	1014.622	939.304	-240.178	1009.459	934.414	-331.301	998.098	950.537	-278.113	1039.742	814.626	-278.167	941.604	365.560	-225.425	1098.119	440.296	-439.518	897.187	450.756	-183.801	1060.716	479.712	-355.988	848.943	377.719	-183.868	1098.201	405.187	-340.931	725.563	155.436	-117.275	1234.926	219.616	-333.005	738.514	201.863	-180.952	1161.826	242.883	-350.262	756.380	39.572	-227.424	1283.995	96.762	-369.651
	36	0.38333	931.039	596.057	-275.039	933.549	609.016	-219.271	946.160	607.164	-336.022	809.076	336.904	-221.227	1099.294	339.020	-343.038	684.074	71.221	-223.789	1218.405	76.250	-367.136	985.909	668.611	-273.632	976.497	669.993	-186.499	995.321	667.229	-360.764	845.026	694.571	-249.067	858.270	686.023	-332.514	802.000	339.815	-175.868	1098.784	339.985	-391.026	803.307	341.675	-259.175	1091.316	325.636	-301.251	675.297	75.041	-191.685	1209.777	75.211	-398.453	676.496	78.002	-252.445	1224.386	77.758	-334.435	932.462	1002.754	-283.110	1027.333	936.705	-242.040	1022.538	931.767	-333.466	1010.860	947.813	-280.161	1053.061	812.108	-280.050	951.888	362.117	-224.914	1115.269	440.345	-438.829	908.145	447.927	-183.660	1075.598	478.709	-355.864	858.826	375.877	-184.099	1113.405	404.279	-341.351	729.939	156.352	-117.322	1251.361	219.230	-331.748	744.101	202.063	-181.172	1177.981	242.091	-350.366	757.034	39.760	-227.446	1302.017	96.749	-368.575
	37	0.39167	944.808	593.177	-276.264	947.143	606.114	-220.409	960.048	604.445	-337.131	819.608	335.248	-221.711	1114.681	337.615	-343.926	686.239	73.453	-223.271	1234.075	74.871	-367.891	999.478	665.917	-274.563	989.833	667.164	-187.337	1009.122	664.670	-361.790	858.588	691.435	-250.348	871.721	683.114	-333.805	812.197	338.520	-176.430	1115.360	339.230	-391.894	813.808	340.391	-259.643	1107.579	324.228	-303.500	677.636	77.644	-191.167	1225.893	74.021	-399.333	678.423	80.431	-251.972	1237.886	75.739	-334.673	945.344	999.859	-285.456	1040.241	934.187	-244.049	1035.590	929.032	-335.661	1023.801	945.210	-282.372	1066.329	809.568	-281.848	962.714	358.752	-224.384	1132.587	440.636	-438.320	919.607	445.099	-183.455	1090.413	478.022	-355.436	869.269	373.936	-184.172	1129.126	404.054	-341.597	734.907	157.420	-117.238	1267.024	217.571	-331.090	750.203	202.392	-181.235	1193.365	240.466	-350.599	757.847	39.991	-227.422	1317.709	94.881	-367.640
	38	0.40000	958.867	590.453	-277.640	961.010	603.335	-221.624	974.082	601.915	-338.331	830.839	333.488	-222.174	1130.071	336.274	-344.755	688.815	76.032	-222.571	1247.572	72.809	-368.497	1013.276	663.365	-275.594	1003.494	664.428	-188.258	1023.059	662.303	-362.930	872.422	688.445	-251.579	885.361	680.430	-335.064	823.121	337.119	-176.971	1131.860	338.483	-392.671	825.136	338.537	-259.969	1124.346	323.821	-304.944	680.453	80.596	-190.454	1239.631	72.106	-400.004	680.614	83.289	-251.258	1249.856	72.707	-335.159	958.309	997.115	-287.953	1053.393	931.821	-246.315	1048.661	926.265	-337.953	1036.930	942.744	-284.724	1079.708	807.097	-283.639	974.144	355.496	-223.921	1149.855	441.000	-438.017	931.614	442.412	-183.540	1105.599	477.910	-355.292	880.444	371.782	-184.274	1145.220	404.494	-341.694	740.540	158.656	-117.030	1281.979	214.804	-330.952	756.908	202.831	-181.216	1208.552	238.178	-351.272	758.851	40.266	-227.344	1331.262	91.261	-367.085
	39	0.40833	973.141	587.910	-279.150	975.125	600.723	-222.914	988.235	599.601	-339.619	842.809	331.633	-222.639	1145.521	335.114	-345.461	691.883	79.002	-221.707	1259.049	70.292	-368.988	1027.285	660.985	-276.728	1017.462	661.825	-189.279	1037.109	660.144	-364.177	886.501	685.649	-252.771	899.161	678.012	-336.303	834.836	335.600	-177.509	1148.228	337.781	-393.311	837.151	336.729	-260.430	1139.121	324.048	-305.137	683.832	83.931	-189.565	1251.189	69.724	-400.518	683.139	86.642	-250.349	1259.786	68.762	-335.784	971.426	994.511	-290.586	1066.677	929.662	-248.795	1062.046	923.730	-340.472	1050.254	940.450	-287.203	1093.421	804.876	-285.636	986.268	352.387	-223.612	1166.847	441.278	-437.968	944.297	439.807	-183.652	1121.179	478.206	-355.509	892.253	369.556	-184.486	1160.605	404.846	-341.290	746.910	160.072	-116.721	1296.254	211.181	-331.166	764.301	203.387	-181.085	1223.164	235.118	-352.177	760.075	40.582	-227.209	1342.895	86.140	-367.054
